<svg width="235" height="51" viewBox="0 0 235 51" fill="none" xmlns="http://www.w3.org/2000/svg">
<path d="M36.0821 40.3364V13.1601H44.5936C44.8452 13.1601 45.3107 13.1664 45.9901 13.1789C46.6821 13.1915 47.3427 13.2419 47.9717 13.3299C50.098 13.5941 51.8846 14.3553 53.3315 15.6135C54.791 16.8717 55.8919 18.4695 56.6342 20.4071C57.3765 22.3321 57.7477 24.4458 57.7477 26.7482C57.7477 29.0633 57.3765 31.1896 56.6342 33.1271C55.8919 35.0521 54.791 36.6437 53.3315 37.9019C51.8846 39.1475 50.098 39.9024 47.9717 40.1666C47.3427 40.2546 46.6821 40.305 45.9901 40.3176C45.3107 40.3301 44.8452 40.3364 44.5936 40.3364H36.0821ZM40.1208 36.5808H44.5936C45.0213 36.5808 45.5309 36.5682 46.1222 36.5431C46.7136 36.5179 47.2357 36.4676 47.6887 36.3921C49.0726 36.1279 50.1924 35.5302 51.048 34.5992C51.9161 33.6556 52.5515 32.4981 52.9541 31.1267C53.3567 29.7553 53.558 28.2958 53.558 26.7482C53.558 25.1504 53.3504 23.672 52.9352 22.3132C52.52 20.9418 51.8783 19.7969 51.0102 18.8784C50.1547 17.9474 49.0475 17.3561 47.6887 17.1044C47.2357 17.0163 46.7073 16.966 46.1034 16.9534C45.512 16.9283 45.0088 16.9157 44.5936 16.9157H40.1208V36.5808ZM71.1822 40.9026C69.1566 40.9026 67.3763 40.4622 65.8413 39.5815C64.3189 38.6882 63.13 37.4489 62.2744 35.8637C61.4314 34.2658 61.01 32.4163 61.01 30.3151C61.01 28.0882 61.4252 26.1569 62.2555 24.5213C63.0985 22.8857 64.2686 21.6212 65.7658 20.7279C67.263 19.8346 69.0056 19.388 70.9935 19.388C73.0695 19.388 74.8372 19.8724 76.2967 20.8412C77.7561 21.7974 78.8444 23.1625 79.5616 24.9365C80.2913 26.7105 80.5807 28.8179 80.4297 31.2588H76.4854V29.8245C76.4602 27.4591 76.0073 25.7103 75.1266 24.5779C74.2584 23.4456 72.9311 22.8794 71.1445 22.8794C69.1692 22.8794 67.6845 23.5022 66.6906 24.7478C65.6966 25.9933 65.1996 27.7925 65.1996 30.1453C65.1996 32.3848 65.6966 34.1211 66.6906 35.3541C67.6845 36.5745 69.1188 37.1847 70.9935 37.1847C72.2265 37.1847 73.2896 36.9079 74.1829 36.3543C75.0888 35.7882 75.7934 34.9829 76.2967 33.9387L80.1655 35.1654C79.3729 36.9897 78.1713 38.4051 76.5609 39.4117C74.9504 40.4056 73.1575 40.9026 71.1822 40.9026ZM63.9163 31.2588V28.1826H78.467V31.2588H63.9163ZM92.4583 40.8837C89.9797 40.8837 87.9603 40.3364 86.4002 39.2418C84.8401 38.1472 83.8839 36.606 83.5316 34.6181L87.5703 33.9953C87.8219 35.0521 88.4007 35.8888 89.3066 36.5053C90.225 37.1092 91.3637 37.4112 92.7225 37.4112C93.9555 37.4112 94.918 37.1596 95.61 36.6563C96.3145 36.153 96.6668 35.461 96.6668 34.5803C96.6668 34.0645 96.541 33.6493 96.2894 33.3347C96.0503 33.0076 95.5408 32.6994 94.7607 32.41C93.9807 32.1206 92.7917 31.762 91.1938 31.3343C89.445 30.8813 88.0547 30.3969 87.023 29.8811C86.0039 29.3526 85.2742 28.7424 84.8338 28.0504C84.406 27.3459 84.1921 26.4966 84.1921 25.5027C84.1921 24.2697 84.5193 23.1939 85.1735 22.2755C85.8277 21.357 86.7462 20.6462 87.9289 20.1429C89.1241 19.6396 90.5207 19.388 92.1186 19.388C93.6787 19.388 95.069 19.6333 96.2894 20.124C97.5098 20.6147 98.4975 21.313 99.2524 22.2189C100.007 23.1122 100.46 24.1627 100.611 25.3706L96.5725 26.1066C96.4341 25.1252 95.9748 24.3514 95.1948 23.7853C94.4147 23.2191 93.4019 22.9108 92.1563 22.8605C90.9611 22.8102 89.9923 23.0115 89.25 23.4644C88.5076 23.9048 88.1365 24.515 88.1365 25.2951C88.1365 25.748 88.2749 26.1317 88.5517 26.4463C88.841 26.7608 89.3946 27.0628 90.2124 27.3522C91.0303 27.6415 92.2381 27.9875 93.836 28.3902C95.5471 28.8305 96.9059 29.3212 97.9124 29.8622C98.9189 30.3906 99.6361 31.026 100.064 31.7683C100.504 32.4981 100.724 33.3851 100.724 34.4293C100.724 36.4424 99.9884 38.0214 98.5163 39.1663C97.0569 40.3113 95.0375 40.8837 92.4583 40.8837ZM104.881 40.3364L104.9 13.1601H108.901V29.7678L116.903 19.9542H121.923L113.468 30.1453L122.791 40.3364H117.432L108.901 30.5227V40.3364H104.881ZM149.115 40.3364L149.134 27.6353C149.134 26.1632 148.757 25.0183 148.002 24.2005C147.247 23.3701 146.253 22.9549 145.02 22.9549C144.265 22.9549 143.573 23.131 142.944 23.4833C142.327 23.823 141.824 24.3389 141.434 25.0309C141.057 25.7103 140.868 26.5658 140.868 27.5975L138.962 26.635C138.937 25.2007 139.239 23.9425 139.868 22.8605C140.509 21.7785 141.377 20.9418 142.472 20.3505C143.567 19.7466 144.793 19.4446 146.152 19.4446C148.354 19.4446 150.059 20.1051 151.267 21.4262C152.474 22.7473 153.078 24.5024 153.078 26.6916L153.06 40.3364H149.115ZM124.675 40.3364V19.9542H128.186V25.8424H128.639V40.3364H124.675ZM136.905 40.3364L136.924 27.7107C136.924 26.2261 136.546 25.0623 135.791 24.2193C135.049 23.3764 134.049 22.9549 132.791 22.9549C131.545 22.9549 130.538 23.3827 129.771 24.2382C129.016 25.0938 128.639 26.2135 128.639 27.5975L126.751 26.3897C126.751 25.056 127.072 23.8671 127.714 22.8228C128.355 21.7785 129.224 20.9544 130.318 20.3505C131.413 19.7466 132.652 19.4446 134.036 19.4446C135.483 19.4446 136.716 19.7529 137.735 20.3694C138.754 20.9733 139.528 21.8225 140.056 22.9171C140.597 24.0117 140.868 25.2825 140.868 26.7294L140.849 40.3364H136.905ZM163.735 40.9026C162.225 40.9026 160.961 40.6258 159.942 40.0722C158.923 39.506 158.149 38.7637 157.62 37.8453C157.105 36.9142 156.847 35.8951 156.847 34.7879C156.847 33.7562 157.029 32.8503 157.394 32.0703C157.759 31.2902 158.3 30.6297 159.017 30.0887C159.734 29.5351 160.615 29.0884 161.659 28.7487C162.565 28.4845 163.59 28.2518 164.735 28.0504C165.88 27.8491 167.082 27.6604 168.34 27.4843C169.611 27.3081 170.869 27.132 172.115 26.9558L170.68 27.7485C170.705 26.1506 170.366 24.9679 169.661 24.2005C168.969 23.4204 167.774 23.0304 166.075 23.0304C165.006 23.0304 164.025 23.282 163.131 23.7853C162.238 24.276 161.615 25.0938 161.263 26.2387L157.583 25.1063C158.086 23.3575 159.042 21.9672 160.451 20.9355C161.873 19.9038 163.76 19.388 166.113 19.388C167.937 19.388 169.523 19.7025 170.869 20.3316C172.228 20.9481 173.222 21.9295 173.851 23.2757C174.178 23.9425 174.379 24.6471 174.455 25.3894C174.53 26.1317 174.568 26.9307 174.568 27.7862V40.3364H171.077V35.6749L171.756 36.2788C170.913 37.839 169.837 39.0028 168.529 39.7703C167.233 40.5252 165.635 40.9026 163.735 40.9026ZM164.433 37.6754C165.553 37.6754 166.516 37.4804 167.321 37.0904C168.126 36.6877 168.774 36.1782 169.265 35.5617C169.755 34.9452 170.076 34.3035 170.227 33.6367C170.441 33.0328 170.561 32.3534 170.586 31.5985C170.624 30.8436 170.642 30.2397 170.642 29.7867L171.926 30.2585C170.68 30.4473 169.548 30.6171 168.529 30.7681C167.51 30.9191 166.585 31.07 165.755 31.221C164.937 31.3594 164.207 31.5293 163.565 31.7306C163.024 31.9193 162.54 32.1458 162.112 32.41C161.697 32.6742 161.364 32.995 161.112 33.3725C160.873 33.7499 160.753 34.2092 160.753 34.7502C160.753 35.2786 160.885 35.7693 161.15 36.2222C161.414 36.6626 161.816 37.0149 162.357 37.2791C162.898 37.5433 163.59 37.6754 164.433 37.6754ZM181.081 49.3952L185.026 38.6568L185.082 41.8274L176.193 19.9542H180.308L186.951 36.845H185.743L192.084 19.9542H196.085L184.837 49.3952H181.081ZM212.216 40.3364C210.933 40.5881 209.674 40.695 208.441 40.6573C207.208 40.6195 206.107 40.3805 205.139 39.9401C204.17 39.4997 203.44 38.8078 202.949 37.8641C202.509 37.0212 202.27 36.1656 202.232 35.2975C202.207 34.4168 202.195 33.4228 202.195 32.3156V14.2924H206.158V32.1269C206.158 32.9447 206.164 33.6556 206.177 34.2595C206.202 34.8634 206.334 35.373 206.573 35.7882C207.026 36.5682 207.743 37.0149 208.724 37.1281C209.718 37.2288 210.882 37.1847 212.216 36.996V40.3364ZM198.288 23.1247V19.9542H212.216V23.1247H198.288ZM224.632 40.9026C222.606 40.9026 220.826 40.4622 219.291 39.5815C217.768 38.6882 216.579 37.4489 215.724 35.8637C214.881 34.2658 214.459 32.4163 214.459 30.3151C214.459 28.0882 214.875 26.1569 215.705 24.5213C216.548 22.8857 217.718 21.6212 219.215 20.7279C220.712 19.8346 222.455 19.388 224.443 19.388C226.519 19.388 228.287 19.8724 229.746 20.8412C231.206 21.7974 232.294 23.1625 233.011 24.9365C233.741 26.7105 234.03 28.8179 233.879 31.2588H229.935V29.8245C229.91 27.4591 229.457 25.7103 228.576 24.5779C227.708 23.4456 226.38 22.8794 224.594 22.8794C222.619 22.8794 221.134 23.5022 220.14 24.7478C219.146 25.9933 218.649 27.7925 218.649 30.1453C218.649 32.3848 219.146 34.1211 220.14 35.3541C221.134 36.5745 222.568 37.1847 224.443 37.1847C225.676 37.1847 226.739 36.9079 227.632 36.3543C228.538 35.7882 229.243 34.9829 229.746 33.9387L233.615 35.1654C232.822 36.9897 231.621 38.4051 230.01 39.4117C228.4 40.4056 226.607 40.9026 224.632 40.9026ZM217.366 31.2588V28.1826H231.916V31.2588H217.366Z" fill="url(#paint0_linear_46_154)"/>
<path d="M2.59412 0.194291L0.611949 0.161235L0.384586 30.6503C0.352087 35.036 1.54369 39.3115 3.76353 42.7743C5.98334 46.2371 9.0994 48.6811 12.5996 49.7048C12.6738 49.7262 12.7397 49.7475 12.7933 49.7585C12.8345 49.7692 12.8757 49.78 12.917 49.7857L12.9169 49.7907L12.9211 49.7908C12.9252 49.7858 12.9252 49.7909 12.9252 49.7909L12.9335 49.791C12.9437 49.7975 12.955 49.8011 12.9664 49.8016C12.968 49.8036 12.97 49.805 12.9721 49.8059C12.9743 49.8069 12.9765 49.8072 12.9788 49.8069C13.5944 49.9649 14.2168 50.0796 14.843 50.1503C15.2474 50.1923 15.6602 50.2194 16.0732 50.2262C16.2673 50.2295 16.4614 50.2327 16.6514 50.2208C18.388 50.151 20.0887 49.6134 21.6316 48.6464C20.6014 48.1185 19.6014 47.506 18.6386 46.8132C15.2509 44.3937 12.3613 41.0585 10.1935 37.0656C9.84908 36.5698 9.54855 36.0312 9.29688 35.4587C9.29279 35.4536 9.29278 35.4536 9.29282 35.4486C9.13162 35.0889 8.99088 34.7163 8.87162 34.3333C8.50839 33.2018 8.32806 31.9961 8.34054 30.783L8.49552 10.0002L12.3938 10.0653C13.0156 10.0744 13.6347 10.1744 14.2377 10.363L14.2501 10.3632C15.1111 10.6357 15.9288 11.0837 16.6687 11.6881C17.0616 12.0062 17.4294 12.3682 17.7675 12.7694C15.6422 9.0527 12.8822 5.94016 9.67865 3.64736C7.4719 2.06763 5.0833 0.903394 2.59412 0.194291Z" fill="url(#paint1_linear_46_154)"/>
<path d="M12.4558 0.352771L2.58942 0.188164C5.07732 0.896847 7.46473 2.06072 9.67033 3.64016C12.8716 5.93224 15.6295 9.04379 17.7531 12.7593C18.5317 13.6664 19.1491 14.7591 19.5669 15.9688C19.9847 17.1786 20.1937 18.4794 20.181 19.7898L20.0616 35.8176C20.0515 37.0775 19.6317 38.2788 18.8946 39.157C18.1575 40.0353 17.1633 40.5187 16.1308 40.501C14.9959 40.4837 13.8765 40.166 12.8499 39.5698C11.8233 38.9735 10.914 38.1131 10.1848 37.0478C12.3505 41.0392 15.2373 44.3733 18.622 46.7923C19.584 47.4849 20.5833 48.0972 21.6127 48.6249C23.5263 47.4281 25.1336 45.6153 26.2615 43.3818C27.3893 41.1484 27.995 38.5789 28.0132 35.9502L28.1327 19.9225C28.1651 15.6344 27.0267 11.4487 24.8971 8.02562C22.7675 4.60249 19.7679 2.13676 16.3714 1.01739C16.3585 1.00947 16.3446 1.00415 16.3303 1.0016C15.065 0.590948 13.7635 0.372979 12.4558 0.352771Z" fill="url(#paint2_linear_46_154)"/>
<g style="mix-blend-mode:multiply" opacity="0.15">
<g style="mix-blend-mode:multiply" opacity="0.15">
<path d="M2.63558 0.201307L0.656773 0.161318C0.656773 0.161318 5.75377 0.67911 10.2338 9.66613C10.2867 9.77216 10.3397 9.87819 10.3926 9.98922L12.4332 10.0305C13.054 10.0418 13.6721 10.1433 14.2744 10.3326L14.2867 10.3328C15.1466 10.6064 15.9635 11.0538 16.7029 11.6561C17.0956 11.9731 17.4633 12.3336 17.8013 12.7329C15.6747 9.03763 12.9153 5.93947 9.71418 3.653C7.50858 2.07743 5.12199 0.913692 2.63558 0.201307Z" fill="black"/>
</g>
</g>
<g style="mix-blend-mode:multiply" opacity="0.15">
<g style="mix-blend-mode:multiply" opacity="0.15">
<path d="M8.81853 34.3518C8.81853 34.3518 8.87356 41.5372 14.8084 50.1261C15.2128 50.1694 15.6256 50.1978 16.0385 50.2062C16.2325 50.2101 16.4266 50.2141 16.6166 50.2029C18.3528 50.1398 20.0524 49.6105 21.5937 48.6532C20.563 48.1237 19.5624 47.51 18.5988 46.8165C15.2085 44.3945 12.3149 41.0624 10.1422 37.0778C9.79717 36.5828 9.49597 36.0453 9.24358 35.4742C9.23948 35.4691 9.23948 35.4691 9.23951 35.4641C9.07844 35.1053 8.93776 34.7336 8.81853 34.3518Z" fill="black"/>
</g>
</g>
<g style="mix-blend-mode:multiply" opacity="0.3">
<g style="mix-blend-mode:multiply" opacity="0.3">
<path d="M12.8745 49.8161C12.8844 49.8214 12.8949 49.8251 12.9058 49.827C12.9013 49.8218 12.8923 49.8216 12.8834 49.8163L12.8745 49.8161Z" fill="black"/>
</g>
</g>
<g style="mix-blend-mode:multiply" opacity="0.3">
<g style="mix-blend-mode:multiply" opacity="0.3">
<path d="M0.535127 2.55682L0.361824 30.6396C0.334981 35.0231 1.5407 39.301 3.78081 42.7703C6.02088 46.2395 9.16215 48.6938 12.6883 49.7297C12.7631 49.7513 12.8295 49.7728 12.8835 49.784C12.9244 49.7978 12.966 49.8087 13.008 49.8167L13.0122 49.8168L13.0081 49.8117C12.9293 49.7799 12.7923 49.7267 12.5931 49.6522C12.1342 49.4981 11.6826 49.3124 11.2407 49.0963C10.9546 48.9495 10.6309 48.8272 10.2995 48.6242C9.96797 48.4211 9.60744 48.2074 9.22624 47.9731C8.86189 47.704 8.47684 47.4193 8.06697 47.1139C7.68645 46.7689 7.26006 46.4431 6.85913 46.0372C6.43414 45.6257 6.02864 45.1855 5.64446 44.7187C5.44631 44.478 5.24402 44.2323 5.03758 43.9864C4.85209 43.7158 4.65827 43.4451 4.46449 43.1693C4.36968 43.0314 4.26652 42.8984 4.1759 42.7556C4.0895 42.6028 3.99891 42.4549 3.91248 42.3072C3.73552 42.0015 3.54603 41.7056 3.37748 41.385C3.03449 40.7348 2.72066 40.0629 2.43744 39.3722C2.14545 38.6601 1.88748 37.9287 1.66488 37.1814C1.45545 36.4084 1.27841 35.6234 1.13454 34.8293C0.993944 34.0291 0.892003 33.2201 0.82923 32.4063L0.791376 31.1266C0.784301 30.925 0.773348 30.6781 0.778531 30.512L0.782477 29.8727C0.788851 28.1659 0.795224 26.4591 0.797284 24.7773C0.799343 23.0956 0.797061 21.444 0.794465 19.8428C0.785082 16.6453 0.75779 13.6538 0.71951 11.0952C0.689579 8.53166 0.627865 6.40058 0.599665 4.90457C0.557325 3.40826 0.535127 2.55682 0.535127 2.55682Z" fill="black"/>
</g>
</g>
<g style="mix-blend-mode:overlay" opacity="0.6">
<g style="mix-blend-mode:overlay" opacity="0.6">
<path d="M8.16378 9.56665L8.14874 9.98417C8.11455 10.8141 8.10531 11.6395 8.08358 12.4697C8.06184 13.2998 8.0526 14.1252 8.04336 14.9506C8.03412 15.776 8.0207 16.6064 8.02389 17.437C8.02708 18.2677 8.02199 19.0932 8.02937 19.9189C8.04409 21.5754 8.07127 23.2322 8.12337 24.8894C8.17547 26.5467 8.24003 28.2042 8.3586 29.8628L8.48104 9.99088L12.4022 10.07C13.0277 10.0814 13.6505 10.1836 14.2573 10.3743L14.2697 10.3745C13.807 10.1741 13.329 10.0312 12.8433 9.94803C12.3494 9.86759 11.8718 9.84285 11.3861 9.79277C10.9875 9.75956 10.5847 9.72626 10.1861 9.70311C9.61722 9.65639 9.05246 9.61982 8.48352 9.5882L8.16378 9.56665Z" fill="white"/>
</g>
</g>
<g style="mix-blend-mode:screen" opacity="0.4">
<g style="mix-blend-mode:screen" opacity="0.4">
<path d="M16.3158 0.976367C16.4522 1.04453 16.8738 1.24425 17.5147 1.53393C17.8988 1.76307 18.3742 1.99406 18.8861 2.33648C19.1421 2.51272 19.4146 2.69935 19.6994 2.8963C19.9843 3.09325 20.2605 3.34537 20.5617 3.57787C20.873 3.82737 21.1731 4.09713 21.4605 4.38595C21.613 4.52991 21.7655 4.6789 21.9221 4.82797C22.0704 4.99197 22.2186 5.15596 22.371 5.32005C22.5234 5.48413 22.6757 5.65827 22.8322 5.82746C22.9762 6.01653 23.1201 6.2056 23.2682 6.39475C23.4163 6.5839 23.5644 6.77305 23.7124 6.96723C23.8521 7.17131 23.9918 7.38041 24.1315 7.58952C24.2712 7.79862 24.4191 8.00789 24.5504 8.22689C24.6817 8.44589 24.8088 8.67989 24.9401 8.90896C25.211 9.35718 25.4318 9.84465 25.6693 10.3324C26.1358 11.3249 26.529 12.365 26.8442 13.4403C27.0026 13.9819 27.1235 14.5378 27.2653 15.079C27.3655 15.6344 27.4699 16.19 27.5577 16.7452C27.6082 17.2996 27.6836 17.8345 27.7258 18.3938C27.7473 18.9477 27.781 19.537 27.7903 20.0453C27.8058 22.2493 27.8388 24.3027 27.8818 26.0645C27.9166 27.8261 27.9822 29.2915 28.0132 30.3185C28.0442 31.3455 28.082 31.9349 28.082 31.9349L28.156 19.9068C28.1828 15.6229 27.0336 11.4369 24.8897 8.00921C22.7458 4.5815 19.7292 2.10711 16.3158 0.976367Z" fill="white"/>
</g>
</g>
<g style="mix-blend-mode:multiply" opacity="0.3">
<g style="mix-blend-mode:multiply" opacity="0.3">
<path d="M1.5357 0.0133186L2.07327 0.185163L2.50745 0.324732C4.01919 0.797173 5.49256 1.44001 6.90821 2.24475C7.61844 2.63637 8.30768 3.07285 8.98431 3.53925C9.32677 3.77253 9.65256 4.02057 9.98661 4.2738C10.3207 4.52703 10.634 4.78488 10.9513 5.06292C12.2261 6.1463 13.4169 7.36926 14.5086 8.71631C15.0556 9.38129 15.5691 10.0909 16.066 10.8101C16.2713 11.1111 16.4725 11.4119 16.6695 11.7227C17.0641 12.0418 17.4336 12.4046 17.7732 12.8064C18.556 13.7153 19.1774 14.809 19.5984 16.0188C20.0194 17.2287 20.2311 18.5287 20.2201 19.8376L20.1218 35.8462C20.1134 37.1047 19.6936 38.303 18.9547 39.1775C18.2159 40.0521 17.2185 40.5313 16.1819 40.5098C15.0425 40.4884 13.9183 40.1669 12.8869 39.5676C11.8554 38.9684 10.9414 38.1056 10.2079 37.0388C9.86174 36.5426 9.55953 36.0037 9.30629 35.4311C9.46214 36.0613 9.68553 36.6644 9.97062 37.2252C10.6922 38.505 11.4878 39.7213 12.3513 40.8648C12.7829 41.4319 13.2311 41.9892 13.696 42.5167C14.161 43.0442 14.6468 43.547 15.141 44.0298C16.1346 44.9913 17.1844 45.8633 18.2821 46.6386C19.375 47.4165 20.5167 48.0872 21.6963 48.6443C20.5505 48.0059 19.4432 47.2691 18.3828 46.4395C17.3237 45.6183 16.3156 44.7035 15.3668 43.7024C14.8892 43.2048 14.4325 42.6775 13.9883 42.1454C13.5441 41.6133 13.1167 41.0564 12.7017 40.4846C12.4388 40.1221 12.1883 39.7448 11.9379 39.3676C12.3946 39.7266 12.8801 40.0281 13.3867 40.2671C14.0497 40.5894 14.7457 40.7982 15.4545 40.8874C16.1783 41.0152 16.9151 40.9442 17.6103 40.6795C18.3177 40.393 18.9492 39.8857 19.4419 39.2082C19.9345 38.5307 20.2712 37.7065 20.4182 36.818C20.4563 36.5966 20.4799 36.3717 20.4887 36.1454C20.4935 36.0348 20.5022 35.9646 20.5073 35.8138L20.5092 35.507L20.5209 34.2698L20.5444 31.7955L20.5913 26.852L20.6051 21.9077C20.602 21.0777 20.6151 20.2782 20.6039 19.4178C20.5769 18.5528 20.4568 17.6946 20.2467 16.8654C19.8311 15.2156 19.0741 13.7193 18.0484 12.5202C17.5933 11.7414 17.1131 10.9923 16.6039 10.2627C16.0886 9.52574 15.5425 8.82124 14.9678 8.15219C13.8223 6.80912 12.5788 5.59525 11.2529 4.52579C10.9272 4.25763 10.5808 3.99912 10.2467 3.75091C9.91262 3.50271 9.56194 3.2592 9.21114 3.03581C8.51374 2.57905 7.80369 2.15724 7.07265 1.78028C5.8911 1.18415 4.67536 0.695516 3.43558 0.318371C4.63301 0.312428 5.82633 0.301374 7.02383 0.285376C5.52865 0.199778 4.02925 0.124159 2.53395 0.0586794L1.5357 0.0133186Z" fill="black"/>
</g>
</g>
<defs>
<linearGradient id="paint0_linear_46_154" x1="144.565" y1="0.336421" x2="142.29" y2="69.6399" gradientUnits="userSpaceOnUse">
<stop stop-color="white"/>
<stop offset="1" stop-color="white" stop-opacity="0.33"/>
</linearGradient>
<linearGradient id="paint1_linear_46_154" x1="1.62345" y1="25.0817" x2="16.5467" y2="25.193" gradientUnits="userSpaceOnUse">
<stop stop-color="white"/>
<stop offset="1" stop-color="white" stop-opacity="0.58"/>
</linearGradient>
<linearGradient id="paint2_linear_46_154" x1="28.6624" y1="24.6828" x2="9.96085" y2="24.5434" gradientUnits="userSpaceOnUse">
<stop stop-color="white" stop-opacity="0.47"/>
<stop offset="1" stop-color="#C5C5C5"/>
</linearGradient>
</defs>
</svg>
