<svg width="38" height="38" viewBox="0 0 38 38" fill="none" xmlns="http://www.w3.org/2000/svg">
<g id="Frame 16">
<rect x="1.05127" y="0.893555" width="36.8185" height="36.8185" rx="18.4092" transform="rotate(0.116239 1.05127 0.893555)" fill="url(#paint0_linear_80_2805)"/>
<path id="Ellipse 4" d="M28.6293 19.3591C28.619 24.4427 24.4896 28.5554 19.406 28.5451C14.3225 28.5348 10.2098 24.4054 10.2201 19.3218C10.2304 14.2382 14.3598 10.1255 19.4434 10.1359C24.5269 10.1462 28.6396 14.2756 28.6293 19.3591ZM14.3622 19.3302C14.3565 22.1262 16.6185 24.3973 19.4144 24.403C22.2104 24.4087 24.4816 22.1467 24.4872 19.3507C24.4929 16.5548 22.2309 14.2836 19.435 14.2779C16.639 14.2723 14.3678 16.5342 14.3622 19.3302Z" fill="black"/>
</g>
<defs>
<linearGradient id="paint0_linear_80_2805" x1="19.4605" y1="0.893555" x2="19.4605" y2="37.712" gradientUnits="userSpaceOnUse">
<stop stop-color="#FAC515"/>
<stop offset="1" stop-color="#FCDC73"/>
</linearGradient>
</defs>
</svg>
