<svg width="142" height="31" viewBox="0 0 142 31" fill="none" xmlns="http://www.w3.org/2000/svg">
<path d="M22.2339 24.1895V7.87227H27.3443C27.4954 7.87227 27.7749 7.87605 28.1828 7.8836C28.5983 7.89116 28.9949 7.92137 29.3726 7.97425C30.6493 8.13289 31.722 8.58992 32.5907 9.34535C33.467 10.1008 34.128 11.0602 34.5737 12.2235C35.0194 13.3793 35.2423 14.6484 35.2423 16.0309C35.2423 17.4208 35.0194 18.6975 34.5737 19.8609C34.128 21.0167 33.467 21.9723 32.5907 22.7277C31.722 23.4756 30.6493 23.9288 29.3726 24.0875C28.9949 24.1404 28.5983 24.1706 28.1828 24.1781C27.7749 24.1857 27.4954 24.1895 27.3443 24.1895H22.2339ZM24.6588 21.9345H27.3443C27.6011 21.9345 27.9071 21.927 28.2621 21.9118C28.6172 21.8967 28.9307 21.8665 29.2027 21.8212C30.0336 21.6626 30.7059 21.3037 31.2196 20.7447C31.7409 20.1781 32.1224 19.4832 32.3641 18.6597C32.6058 17.8363 32.7267 16.96 32.7267 16.0309C32.7267 15.0715 32.6021 14.1838 32.3528 13.368C32.1035 12.5446 31.7182 11.8571 31.197 11.3057C30.6833 10.7467 30.0185 10.3916 29.2027 10.2405C28.9307 10.1876 28.6134 10.1574 28.2508 10.1499C27.8958 10.1348 27.5936 10.1272 27.3443 10.1272H24.6588V21.9345ZM43.3086 24.5294C42.0924 24.5294 41.0235 24.265 40.1018 23.7362C39.1878 23.1998 38.4739 22.4558 37.9602 21.5039C37.4541 20.5445 37.201 19.4341 37.201 18.1725C37.201 16.8354 37.4503 15.6758 37.9489 14.6938C38.455 13.7117 39.1576 12.9525 40.0565 12.4162C40.9555 11.8798 42.0017 11.6116 43.1953 11.6116C44.4418 11.6116 45.5031 11.9025 46.3794 12.4841C47.2557 13.0583 47.9092 13.8779 48.3398 14.943C48.7779 16.0082 48.9516 17.2735 48.861 18.7391H46.4927V17.8779C46.4776 16.4577 46.2057 15.4076 45.6769 14.7278C45.1556 14.0479 44.3587 13.7079 43.286 13.7079C42.0999 13.7079 41.2085 14.0819 40.6118 14.8297C40.015 15.5776 39.7166 16.6579 39.7166 18.0705C39.7166 19.4152 40.015 20.4577 40.6118 21.198C41.2085 21.9307 42.0697 22.2971 43.1953 22.2971C43.9356 22.2971 44.574 22.1309 45.1103 21.7985C45.6542 21.4586 46.0773 20.9751 46.3794 20.3481L48.7024 21.0847C48.2264 22.18 47.505 23.0299 46.5381 23.6342C45.5711 24.231 44.4946 24.5294 43.3086 24.5294ZM38.946 18.7391V16.892H47.6825V18.7391H38.946ZM56.0832 24.5181C54.595 24.5181 53.3825 24.1895 52.4458 23.5322C51.5091 22.875 50.9349 21.9496 50.7234 20.756L53.1483 20.3821C53.2994 21.0167 53.6469 21.519 54.1908 21.8892C54.7423 22.2518 55.4259 22.4331 56.2418 22.4331C56.9821 22.4331 57.56 22.282 57.9755 21.9798C58.3985 21.6777 58.6101 21.2622 58.6101 20.7334C58.6101 20.4237 58.5345 20.1744 58.3834 19.9855C58.2399 19.7891 57.9339 19.604 57.4656 19.4303C56.9972 19.2565 56.2833 19.0412 55.324 18.7844C54.2739 18.5124 53.4392 18.2216 52.8197 17.9119C52.2078 17.5946 51.7697 17.2282 51.5053 16.8127C51.2484 16.3897 51.12 15.8798 51.12 15.283C51.12 14.5427 51.3164 13.8968 51.7092 13.3453C52.1021 12.7939 52.6535 12.367 53.3636 12.0649C54.0813 11.7627 54.9198 11.6116 55.8792 11.6116C56.8159 11.6116 57.6507 11.7589 58.3834 12.0535C59.1162 12.3482 59.7092 12.7674 60.1625 13.3113C60.6157 13.8477 60.8877 14.4785 60.9783 15.2037L58.5534 15.6456C58.4703 15.0564 58.1946 14.5918 57.7262 14.2518C57.2578 13.9119 56.6497 13.7268 55.9019 13.6966C55.1842 13.6664 54.6025 13.7872 54.1568 14.0592C53.7111 14.3236 53.4883 14.69 53.4883 15.1583C53.4883 15.4303 53.5714 15.6607 53.7376 15.8496C53.9113 16.0384 54.2437 16.2197 54.7347 16.3935C55.2257 16.5672 55.951 16.775 56.9103 17.0167C57.9377 17.2811 58.7536 17.5757 59.3579 17.9005C59.9623 18.2178 60.3929 18.5993 60.6497 19.045C60.9141 19.4832 61.0463 20.0157 61.0463 20.6427C61.0463 21.8514 60.6044 22.7995 59.7205 23.4869C58.8442 24.1743 57.6318 24.5181 56.0832 24.5181ZM63.5422 24.1895L63.5535 7.87227H65.9558V17.8439L70.7603 11.9516H73.7744L68.698 18.0705L74.2957 24.1895H71.0776L65.9558 18.2971V24.1895H63.5422ZM90.101 24.1895L90.1123 16.5634C90.1123 15.6796 89.8857 14.9922 89.4325 14.5011C88.9792 14.0025 88.3824 13.7533 87.6421 13.7533C87.1888 13.7533 86.7734 13.859 86.3957 14.0705C86.0255 14.2745 85.7233 14.5842 85.4891 14.9997C85.2625 15.4076 85.1492 15.9213 85.1492 16.5408L84.0047 15.9629C83.9896 15.1017 84.1709 14.3463 84.5486 13.6966C84.9339 13.0469 85.4551 12.5446 86.1124 12.1895C86.7696 11.8269 87.5061 11.6456 88.322 11.6456C89.644 11.6456 90.6676 12.0422 91.3928 12.8354C92.118 13.6286 92.4806 14.6824 92.4806 15.9969L92.4693 24.1895H90.101ZM75.4269 24.1895V11.9516H77.5345V15.487H77.8065V24.1895H75.4269ZM82.7696 24.1895L82.7809 16.6088C82.7809 15.7174 82.5543 15.0186 82.1011 14.5125C81.6554 14.0063 81.0548 13.7533 80.2994 13.7533C79.5515 13.7533 78.9472 14.0101 78.4864 14.5238C78.0331 15.0375 77.8065 15.7098 77.8065 16.5408L76.6733 15.8156C76.6733 15.0148 76.866 14.3009 77.2512 13.6739C77.6365 13.0469 78.1577 12.5521 78.815 12.1895C79.4722 11.8269 80.2163 11.6456 81.0472 11.6456C81.916 11.6456 82.6563 11.8307 83.2682 12.2009C83.8801 12.5635 84.3447 13.0734 84.662 13.7306C84.9868 14.3878 85.1492 15.1508 85.1492 16.0195L85.1379 24.1895H82.7696ZM98.8791 24.5294C97.9726 24.5294 97.2134 24.3632 96.6015 24.0308C95.9896 23.6909 95.525 23.2452 95.2077 22.6937C94.898 22.1347 94.7432 21.5228 94.7432 20.858C94.7432 20.2386 94.8527 19.6947 95.0718 19.2263C95.2908 18.7579 95.6157 18.3613 96.0463 18.0365C96.4769 17.7041 97.0057 17.436 97.6327 17.232C98.1766 17.0733 98.7922 16.9336 99.4797 16.8127C100.167 16.6919 100.889 16.5785 101.644 16.4728C102.407 16.367 103.162 16.2613 103.91 16.1555L103.049 16.6314C103.064 15.672 102.86 14.9619 102.437 14.5011C102.022 14.0328 101.304 13.7986 100.284 13.7986C99.6421 13.7986 99.0529 13.9497 98.5165 14.2518C97.9802 14.5465 97.6062 15.0375 97.3947 15.7249L95.1851 15.045C95.4873 13.995 96.0614 13.1602 96.9075 12.5408C97.7611 11.9213 98.8942 11.6116 100.307 11.6116C101.402 11.6116 102.354 11.8005 103.162 12.1782C103.978 12.5484 104.575 13.1376 104.953 13.9459C105.149 14.3463 105.27 14.7693 105.315 15.215C105.361 15.6607 105.383 16.1404 105.383 16.6541V24.1895H103.287V21.3906L103.695 21.7532C103.189 22.6899 102.543 23.3887 101.757 23.8495C100.979 24.3028 100.02 24.5294 98.8791 24.5294ZM99.2984 22.5917C99.9707 22.5917 100.549 22.4746 101.032 22.2405C101.516 21.9987 101.905 21.6928 102.199 21.3226C102.494 20.9525 102.686 20.5672 102.777 20.1668C102.906 19.8042 102.977 19.3963 102.992 18.943C103.015 18.4898 103.026 18.1272 103.026 17.8552L103.797 18.1385C103.049 18.2518 102.369 18.3538 101.757 18.4444C101.145 18.5351 100.59 18.6257 100.092 18.7164C99.6005 18.7995 99.1624 18.9015 98.7771 19.0223C98.4523 19.1357 98.1615 19.2716 97.9046 19.4303C97.6553 19.5889 97.4551 19.7815 97.304 20.0082C97.1605 20.2348 97.0888 20.5105 97.0888 20.8354C97.0888 21.1526 97.1681 21.4473 97.3267 21.7192C97.4854 21.9836 97.7271 22.1951 98.0519 22.3538C98.3768 22.5124 98.7922 22.5917 99.2984 22.5917ZM109.294 29.6285L111.662 23.181L111.696 25.0846L106.359 11.9516H108.829L112.818 22.0931H112.093L115.9 11.9516H118.303L111.549 29.6285H109.294ZM127.988 24.1895C127.217 24.3405 126.462 24.4047 125.722 24.3821C124.981 24.3594 124.32 24.2159 123.739 23.9515C123.157 23.6871 122.719 23.2716 122.424 22.705C122.16 22.1989 122.016 21.6852 121.994 21.164C121.978 20.6352 121.971 20.0384 121.971 19.3736V8.55215H124.35V19.2603C124.35 19.7513 124.354 20.1781 124.362 20.5407C124.377 20.9034 124.456 21.2093 124.6 21.4586C124.872 21.927 125.302 22.1951 125.892 22.2631C126.488 22.3236 127.187 22.2971 127.988 22.1838V24.1895ZM119.625 13.8552V11.9516H127.988V13.8552H119.625ZM135.442 24.5294C134.226 24.5294 133.157 24.265 132.236 23.7362C131.322 23.1998 130.608 22.4558 130.094 21.5039C129.588 20.5445 129.335 19.4341 129.335 18.1725C129.335 16.8354 129.584 15.6758 130.083 14.6938C130.589 13.7117 131.291 12.9525 132.19 12.4162C133.089 11.8798 134.136 11.6116 135.329 11.6116C136.576 11.6116 137.637 11.9025 138.513 12.4841C139.39 13.0583 140.043 13.8779 140.474 14.943C140.912 16.0082 141.085 17.2735 140.995 18.7391H138.627V17.8779C138.611 16.4577 138.34 15.4076 137.811 14.7278C137.289 14.0479 136.492 13.7079 135.42 13.7079C134.234 13.7079 133.342 14.0819 132.746 14.8297C132.149 15.5776 131.85 16.6579 131.85 18.0705C131.85 19.4152 132.149 20.4577 132.746 21.198C133.342 21.9307 134.204 22.2971 135.329 22.2971C136.069 22.2971 136.708 22.1309 137.244 21.7985C137.788 21.4586 138.211 20.9751 138.513 20.3481L140.836 21.0847C140.36 22.18 139.639 23.0299 138.672 23.6342C137.705 24.231 136.628 24.5294 135.442 24.5294ZM131.08 18.7391V16.892H139.816V18.7391H131.08Z" fill="url(#paint0_linear_72_319)"/>
<path d="M1.55847 0.116273L0.368338 0.0964254L0.231825 18.4026C0.212312 21.0359 0.927772 23.603 2.26061 25.6821C3.59342 27.7612 5.46436 29.2287 7.56593 29.8433C7.61047 29.8562 7.65005 29.8689 7.68224 29.8755C7.70699 29.882 7.73174 29.8884 7.75651 29.8919L7.75649 29.8949L7.75897 29.8949C7.76147 29.892 7.76145 29.895 7.76145 29.895L7.76641 29.8951C7.77255 29.899 7.77931 29.9011 7.7862 29.9014C7.78715 29.9026 7.78834 29.9035 7.78962 29.904C7.79091 29.9046 7.79225 29.9048 7.79361 29.9046C8.16326 29.9995 8.53696 30.0683 8.91292 30.1108C9.15575 30.136 9.40361 30.1522 9.65155 30.1564C9.76808 30.1583 9.88462 30.1603 9.99874 30.1531C11.0414 30.1112 12.0626 29.7884 12.9889 29.2078C12.3704 28.8909 11.77 28.5231 11.1919 28.1071C9.15781 26.6544 7.42286 24.6519 6.12128 22.2545C5.91448 21.9568 5.73404 21.6334 5.58293 21.2897C5.58047 21.2866 5.58047 21.2866 5.5805 21.2836C5.48371 21.0677 5.39921 20.8439 5.3276 20.614C5.10951 19.9346 5.00123 19.2107 5.00872 18.4823L5.10178 6.00395L7.44237 6.04298C7.81573 6.04848 8.18742 6.10849 8.54949 6.22175L8.55693 6.22188C9.0739 6.38551 9.56487 6.65449 10.0091 7.01739C10.245 7.20837 10.4659 7.42572 10.6688 7.6666C9.3928 5.43503 7.73565 3.5662 5.81215 2.18956C4.48718 1.24106 3.05302 0.54203 1.55847 0.116273Z" fill="url(#paint1_linear_72_319)"/>
<path d="M7.47891 0.211416L1.55496 0.112582C3.04875 0.538089 4.48219 1.2369 5.80647 2.18522C7.72856 3.56143 9.38447 5.42966 10.6595 7.66053C11.127 8.20519 11.4977 8.86124 11.7486 9.58758C11.9994 10.314 12.1249 11.095 12.1173 11.8818L12.0456 21.5051C12.0395 22.2616 11.7875 22.9829 11.3449 23.5102C10.9023 24.0375 10.3054 24.3278 9.68545 24.3171C9.00405 24.3068 8.33195 24.116 7.71557 23.758C7.09918 23.4 6.55321 22.8834 6.11537 22.2438C7.4157 24.6403 9.149 26.6422 11.1812 28.0945C11.7589 28.5104 12.3588 28.878 12.9769 29.1949C14.1259 28.4763 15.0909 27.3879 15.7681 26.0469C16.4453 24.7059 16.8089 23.1631 16.8199 21.5848L16.8916 11.9614C16.9111 9.38682 16.2276 6.87364 14.9489 4.81833C13.6703 2.76303 11.8693 1.28256 9.82995 0.610464C9.82218 0.605709 9.81382 0.602515 9.80524 0.600981C9.04551 0.354422 8.26412 0.223549 7.47891 0.211416Z" fill="url(#paint2_linear_72_319)"/>
<g style="mix-blend-mode:multiply" opacity="0.15">
<g style="mix-blend-mode:multiply" opacity="0.15">
<path d="M1.58271 0.120322L0.394601 0.0963118C0.394601 0.0963118 3.45493 0.407204 6.14482 5.80318C6.17661 5.86684 6.2084 5.9305 6.24017 5.99717L7.46541 6.02193C7.83813 6.02874 8.20926 6.08965 8.57086 6.20331L8.57828 6.20346C9.09459 6.36773 9.58507 6.63634 10.029 6.99801C10.2648 7.18835 10.4855 7.4048 10.6885 7.64453C9.41166 5.42581 7.75486 3.56562 5.83284 2.19278C4.50855 1.24678 3.0756 0.548052 1.58271 0.120322Z" fill="#0A0A0A"/>
</g>
</g>
<g style="mix-blend-mode:multiply" opacity="0.15">
<g style="mix-blend-mode:multiply" opacity="0.15">
<path d="M5.29564 20.6252C5.29564 20.6252 5.32868 24.9394 8.89208 30.0963C9.1349 30.1223 9.38272 30.1394 9.63063 30.1444C9.74714 30.1468 9.86366 30.1491 9.97775 30.1424C11.0202 30.1045 12.0407 29.7868 12.9661 29.212C12.3472 28.894 11.7464 28.5256 11.1679 28.1092C9.13227 26.655 7.39495 24.6543 6.09039 22.2619C5.88323 21.9647 5.70239 21.6419 5.55085 21.2991C5.54838 21.296 5.54838 21.296 5.5484 21.293C5.45169 21.0775 5.36723 20.8544 5.29564 20.6252Z" fill="#0A0A0A"/>
</g>
</g>
<g style="mix-blend-mode:multiply" opacity="0.3">
<g style="mix-blend-mode:multiply" opacity="0.3">
<path d="M7.72891 29.9097C7.73528 29.9132 7.74206 29.9155 7.74902 29.9167C7.74617 29.9134 7.74041 29.9133 7.73467 29.9098L7.72891 29.9097Z" fill="#0A0A0A"/>
</g>
</g>
<g style="mix-blend-mode:multiply" opacity="0.3">
<g style="mix-blend-mode:multiply" opacity="0.3">
<path d="M0.322006 1.5349L0.217952 18.3963C0.201835 21.0283 0.925772 23.5968 2.27078 25.6798C3.61576 27.7628 5.50183 29.2364 7.61901 29.8584C7.66388 29.8714 7.70376 29.8842 7.73618 29.8909C7.76078 29.8992 7.78576 29.9058 7.81098 29.9106L7.81348 29.9106L7.811 29.9076C7.76367 29.8885 7.68146 29.8566 7.56186 29.8119C7.28631 29.7193 7.01517 29.6078 6.74982 29.4781C6.57805 29.3899 6.38372 29.3165 6.18469 29.1946C5.98566 29.0727 5.76919 28.9443 5.54031 28.8037C5.32155 28.6421 5.09036 28.4711 4.84426 28.2878C4.61579 28.0806 4.35978 27.885 4.11905 27.6413C3.86389 27.3942 3.62041 27.1299 3.38975 26.8497C3.27077 26.7052 3.14931 26.5576 3.02536 26.41C2.91399 26.2475 2.79762 26.085 2.68127 25.9194C2.62434 25.8366 2.56241 25.7567 2.508 25.671C2.45612 25.5792 2.40173 25.4905 2.34983 25.4017C2.24358 25.2182 2.12981 25.0406 2.02861 24.8481C1.82267 24.4577 1.63424 24.0542 1.46419 23.6395C1.28888 23.212 1.13398 22.7728 1.00033 22.3241C0.874583 21.86 0.768287 21.3887 0.681903 20.9119C0.597488 20.4315 0.536281 19.9457 0.498591 19.4571L0.475863 18.6887C0.471615 18.5677 0.465038 18.4194 0.46815 18.3197L0.470519 17.9358C0.474346 16.911 0.478173 15.8862 0.479409 14.8765C0.480646 13.8668 0.479275 12.8751 0.477717 11.9137C0.472084 9.99387 0.455697 8.19774 0.432713 6.66149C0.414741 5.12231 0.377687 3.84277 0.360755 2.94453C0.335333 2.04612 0.322006 1.5349 0.322006 1.5349Z" fill="#0A0A0A"/>
</g>
</g>
<g style="mix-blend-mode:overlay" opacity="0.6">
<g style="mix-blend-mode:overlay" opacity="0.6">
<path d="M4.9025 5.74417L4.89347 5.99485C4.87294 6.49316 4.86739 6.98874 4.85435 7.48719C4.8413 7.98564 4.83575 8.48123 4.8302 8.97681C4.82465 9.47239 4.81659 9.97094 4.81851 10.4697C4.82042 10.9685 4.81737 11.4641 4.8218 11.9599C4.83063 12.9545 4.84695 13.9492 4.87824 14.9442C4.90952 15.9393 4.94828 16.9345 5.01947 17.9303L5.09299 5.99888L7.44732 6.0464C7.82287 6.05325 8.19681 6.11457 8.56114 6.22907L8.56863 6.22922C8.2908 6.10891 8.00381 6.02311 7.71216 5.97316C7.41564 5.92486 7.12889 5.91 6.83724 5.87993C6.59791 5.85999 6.35609 5.84 6.11672 5.8261C5.77517 5.79805 5.43608 5.77609 5.09448 5.75711L4.9025 5.74417Z" fill="white"/>
</g>
</g>
<g style="mix-blend-mode:screen" opacity="0.4">
<g style="mix-blend-mode:screen" opacity="0.4">
<path d="M9.79666 0.585735C9.87855 0.626663 10.1317 0.746573 10.5165 0.920504C10.7471 1.05809 11.0325 1.19678 11.3399 1.40237C11.4936 1.50819 11.6572 1.62025 11.8283 1.7385C11.9993 1.85675 12.1651 2.00812 12.346 2.14772C12.5329 2.29753 12.713 2.4595 12.8857 2.63291C12.9772 2.71934 13.0688 2.8088 13.1628 2.89831C13.2518 2.99677 13.3408 3.09524 13.4323 3.19376C13.5238 3.29228 13.6153 3.39683 13.7092 3.49842C13.7957 3.61194 13.8821 3.72546 13.971 3.83903C14.0599 3.9526 14.1488 4.06617 14.2377 4.18276C14.3216 4.30529 14.4055 4.43084 14.4893 4.55639C14.5732 4.68194 14.662 4.80759 14.7409 4.93908C14.8197 5.07057 14.896 5.21107 14.9749 5.34861C15.1375 5.61773 15.2701 5.91041 15.4127 6.2033C15.6928 6.79917 15.9288 7.42367 16.1181 8.06933C16.2132 8.39449 16.2858 8.72825 16.3709 9.0532C16.4311 9.3867 16.4938 9.72026 16.5465 10.0536C16.5768 10.3865 16.6221 10.7077 16.6474 11.0435C16.6603 11.376 16.6806 11.7299 16.6862 12.0351C16.6954 13.3584 16.7153 14.5913 16.7411 15.6491C16.762 16.7068 16.8014 17.5867 16.82 18.2033C16.8386 18.8199 16.8613 19.1738 16.8613 19.1738L16.9057 11.9519C16.9218 9.37978 16.2318 6.86644 14.9446 4.80838C13.6573 2.75032 11.8462 1.26465 9.79666 0.585735Z" fill="white"/>
</g>
</g>
<g style="mix-blend-mode:multiply" opacity="0.3">
<g style="mix-blend-mode:multiply" opacity="0.3">
<path d="M0.922553 0.00809553L1.24532 0.111273L1.50601 0.195074C2.41369 0.478737 3.29833 0.864706 4.14831 1.34789C4.57475 1.58303 4.98858 1.84509 5.39484 2.12513C5.60045 2.2652 5.79607 2.41412 5.99663 2.56617C6.1972 2.71821 6.38532 2.87303 6.57584 3.03997C7.34126 3.69045 8.05624 4.42473 8.71172 5.23353C9.04013 5.6328 9.34847 6.05884 9.64683 6.49071C9.7701 6.6714 9.89089 6.85203 10.0092 7.03865C10.2461 7.23021 10.4679 7.44804 10.6719 7.68931C11.1419 8.23505 11.515 8.89168 11.7677 9.6181C12.0205 10.3445 12.1476 11.1251 12.141 11.911L12.082 21.5228C12.0769 22.2784 11.8249 22.9979 11.3813 23.523C10.9376 24.0481 10.3388 24.3358 9.71639 24.3229C9.03231 24.3101 8.35729 24.1171 7.73801 23.7572C7.11872 23.3974 6.56993 22.8794 6.12952 22.2389C5.92166 21.9409 5.74021 21.6174 5.58816 21.2736C5.68174 21.6519 5.81586 22.0141 5.98703 22.3508C6.42027 23.1192 6.89797 23.8495 7.41646 24.5361C7.67558 24.8766 7.94468 25.2112 8.22384 25.5279C8.50301 25.8447 8.7947 26.1465 9.09144 26.4364C9.688 27.0137 10.3183 27.5373 10.9774 28.0028C11.6336 28.4699 12.3191 28.8726 13.0273 29.207C12.3394 28.8237 11.6746 28.3813 11.0379 27.8832C10.402 27.3902 9.7967 26.8409 9.22698 26.2398C8.94025 25.9411 8.66606 25.6245 8.39935 25.305C8.13264 24.9855 7.87598 24.6511 7.62683 24.3078C7.46896 24.0902 7.3186 23.8636 7.16824 23.6371C7.44246 23.8527 7.73395 24.0337 8.0381 24.1772C8.43619 24.3707 8.85407 24.4961 9.27966 24.5496C9.71425 24.6264 10.1566 24.5837 10.574 24.4248C10.9988 24.2528 11.3779 23.9482 11.6738 23.5414C11.9695 23.1346 12.1717 22.6398 12.26 22.1063C12.2828 21.9734 12.297 21.8383 12.3023 21.7025C12.3052 21.6361 12.3104 21.5939 12.3134 21.5034L12.3146 21.3191L12.3216 20.5763L12.3357 19.0907L12.3639 16.1225L12.3722 13.1539C12.3703 12.6555 12.3782 12.1755 12.3714 11.6589C12.3553 11.1395 12.2832 10.6243 12.157 10.1264C11.9074 9.13583 11.4529 8.23742 10.8371 7.51749C10.5638 7.04988 10.2755 6.60008 9.96976 6.16202C9.6604 5.71953 9.33251 5.29654 8.98745 4.89482C8.29966 4.08842 7.55303 3.35959 6.75694 2.71747C6.5614 2.55646 6.35339 2.40124 6.1528 2.25222C5.95221 2.10319 5.74166 1.95698 5.53103 1.82285C5.1123 1.54861 4.68597 1.29535 4.24704 1.06901C3.53761 0.711084 2.80766 0.417701 2.06327 0.191253C2.78224 0.187686 3.49873 0.18105 4.21773 0.171443C3.31999 0.12005 2.41973 0.074645 1.52192 0.0353308L0.922553 0.00809553Z" fill="#0A0A0A"/>
</g>
</g>
<defs>
<linearGradient id="paint0_linear_72_319" x1="87.4319" y1="0.18945" x2="86.0332" y2="42.314" gradientUnits="userSpaceOnUse">
<stop stop-color="white"/>
<stop offset="1" stop-color="white" stop-opacity="0.33"/>
</linearGradient>
<linearGradient id="paint1_linear_72_319" x1="0.975663" y1="15.0591" x2="9.93588" y2="15.1259" gradientUnits="userSpaceOnUse">
<stop stop-color="white"/>
<stop offset="1" stop-color="white" stop-opacity="0.58"/>
</linearGradient>
<linearGradient id="paint2_linear_72_319" x1="17.2097" y1="14.8196" x2="5.98091" y2="14.7359" gradientUnits="userSpaceOnUse">
<stop stop-color="white" stop-opacity="0.47"/>
<stop offset="1" stop-color="#C5C5C5"/>
</linearGradient>
</defs>
</svg>
